<svg xmlns="http://www.w3.org/2000/svg" viewBox="0 0 100 141.43"><defs><style>.cls-1{fill:aqua;fill-rule:evenodd;}.cls-2{fill:#002f49;}</style></defs><g id="Layer_2" data-name="Layer 2"><g id="Layer_1-2" data-name="Layer 1"><path class="cls-1" d="M34,43.24l-4-6.38c-1.47-2.32-3-4.63-4.41-6.95-.8-1.26-.64-2.43.4-3.1s2.14-.3,3,1q4,6.36,8.08,12.74c.19.3.39.6.56.85,2.23-.63,4.4-1.28,6.58-1.86a15.61,15.61,0,0,1,3-.53c.82-.06,1-.42,1-1.16,0-7.21,0-14.43,0-21.64V14.5q-6.55-3.27-5.25-8.77A7.29,7.29,0,1,1,52,14.38V38.52c1.81.14,3.54.22,5.27.43a37.33,37.33,0,0,1,4.2.76,1.11,1.11,0,0,0,1.51-.66c1.56-3,3.18-6,4.79-9,.29-.53.62-1,.94-1.57a6.12,6.12,0,0,1-.51-8.41,6,6,0,0,1,7.47-1.48,6,6,0,0,1,3,6.79c-.72,2.93-3.18,4.65-6.43,4.62L66.47,40.82c-2.07,3.85-4.13,7.69-6.21,11.52a2,2,0,0,1-2.41,1.28,2,2,0,0,1-1.15-3c1.21-2.3,2.45-4.59,3.79-7.09-1.41-.25-2.7-.56-4-.7a33.44,33.44,0,0,0-23.55,5.86c-1.22.87-2.42.78-3.11-.21s-.42-2.14.8-3C31.66,44.74,32.74,44.05,34,43.24ZM53.16,7.4a3.32,3.32,0,1,0-6.63-.07,3.37,3.37,0,0,0,3.23,3.32A3.33,3.33,0,0,0,53.16,7.4ZM74.84,24a2,2,0,0,0-2-2.1A2.12,2.12,0,0,0,70.71,24a2.15,2.15,0,0,0,2,2.12A2.07,2.07,0,0,0,74.84,24Z"/><path class="cls-1" d="M23.74,51.54,12.52,41.71A8,8,0,0,1,1.59,39.43a7.9,7.9,0,0,1,10.62-11.2c3.5,2.06,4.56,5.75,3,10.54l10.6,9.28,8.7,7.63a2.07,2.07,0,0,1,.42,3.09c-.8.86-2,.83-3.05-.11-1.61-1.4-3.2-2.81-4.88-4.29a20,20,0,0,0-4.06,8c-.33,1.38-.48,2.81-.72,4.21,0,.25-.07.5-.11.74a2,2,0,0,1-3.9-.44,23.27,23.27,0,0,1,1.89-8.52C21.13,56.08,22.45,53.92,23.74,51.54ZM12,35a3.94,3.94,0,0,0-3.93-3.95A4,4,0,0,0,4.22,35,3.91,3.91,0,1,0,12,35Z"/><path class="cls-1" d="M77.63,54.46c-1.85,1.74-3.64,3.42-5.42,5.12a2.25,2.25,0,0,1-2.16.87,2,2,0,0,1-.9-3.45c1.59-1.69,3.25-3.32,4.87-5,.22-.22.44-.46.81-.85-1.24-1-2.43-1.91-3.62-2.83-.4-.31-.84-.55-1.25-.84a2,2,0,1,1,2.18-3.3c1.55,1.08,3,2.25,4.54,3.4a6.41,6.41,0,0,1,.59.51L88.38,37.64c-1.28-2.51-1.37-4.79.13-7a6.18,6.18,0,0,1,10.94,5.52,6.05,6.05,0,0,1-6.93,4,1.91,1.91,0,0,0-2,.64c-3.19,3.33-6.43,6.6-9.65,9.89l-.44.48c1.13,1.88,2.31,3.66,3.3,5.55a26,26,0,0,1,2.77,10.15,2.08,2.08,0,0,1-1.88,2.41,2,2,0,0,1-2.09-2.1,23.91,23.91,0,0,0-4.62-12.47A2.85,2.85,0,0,0,77.63,54.46ZM95.8,34.13a2.24,2.24,0,0,0-2.16-2.19,2.31,2.31,0,0,0-2.29,2.21,2.26,2.26,0,0,0,2.26,2.23A2.18,2.18,0,0,0,95.8,34.13Z"/><path class="cls-1" d="M21.41,26.12a4.67,4.67,0,0,1-4.68-4.71,4.79,4.79,0,0,1,4.72-4.72,4.74,4.74,0,0,1,4.7,4.82A4.6,4.6,0,0,1,21.41,26.12Z"/><path class="cls-1" d="M49.86,48.34a2,2,0,0,1-2,2,2.11,2.11,0,0,1-2.13-2.1,2,2,0,0,1,1.94-2A2.24,2.24,0,0,1,49.86,48.34Z"/><path class="cls-1" d="M37.85,61.87a2.11,2.11,0,0,1,2.17,2,2.06,2.06,0,0,1-2,2,2.18,2.18,0,0,1-2.15-2.09A1.88,1.88,0,0,1,37.85,61.87Z"/><path class="cls-2" d="M11,141.43q-5.4,0-8.22-2.89T0,130.14V88.61Q0,77.44,10.92,77.44q9.9,0,10.79,9.53a19.8,19.8,0,0,1,7.59-7.15,23.15,23.15,0,0,1,11.23-2.63A20.64,20.64,0,0,1,51.38,80a17.24,17.24,0,0,1,7,8.53,21.8,21.8,0,0,1,8.54-8.34,24.38,24.38,0,0,1,11.92-3q10.78,0,16,6.46T100,103.79v26.35q0,5.52-3,8.4t-8.34,2.89q-5.28,0-8.16-2.89t-2.88-8.4V104.42c0-3.6-.55-6.19-1.63-7.78s-2.89-2.39-5.4-2.39a8.32,8.32,0,0,0-7.09,3.26c-1.63,2.18-2.45,5.27-2.45,9.29v23.34q0,5.52-2.88,8.4t-8.28,2.89q-5.4,0-8.28-2.89t-2.89-8.4V104.42c0-3.6-.55-6.19-1.63-7.78s-2.89-2.39-5.4-2.39a8.19,8.19,0,0,0-7,3.26c-1.63,2.18-2.45,5.27-2.45,9.29v23.34Q22.33,141.42,11,141.43Z"/></g></g></svg>